<?xml version="1.0" standalone="no"?>
<!DOCTYPE svg PUBLIC "-//W3C//DTD SVG 20010904//EN"
 "http://www.w3.org/TR/2001/REC-SVG-20010904/DTD/svg10.dtd">
<svg version="1.0" xmlns="http://www.w3.org/2000/svg"
 width="3200.000000pt" height="3200.000000pt" viewBox="0 0 3200.000000 3200.000000"
 preserveAspectRatio="xMidYMid meet">

<g transform="translate(0.000000,3200.000000) scale(0.100000,-0.100000)"
fill="#000000" stroke="none">
<path d="M15840 31116 c-25 -7 -58 -20 -75 -28 -16 -9 -44 -19 -62 -22 -17 -4
-37 -14 -44 -22 -6 -8 -18 -14 -26 -14 -13 0 -42 -12 -169 -71 -22 -11 -47
-19 -56 -19 -9 0 -21 -7 -28 -15 -7 -8 -17 -15 -24 -15 -6 0 -36 -12 -66 -26
-30 -14 -68 -32 -85 -39 -16 -7 -55 -24 -85 -38 -30 -13 -66 -30 -80 -36 -14
-6 -32 -15 -40 -20 -34 -21 -123 -61 -134 -61 -6 0 -46 -18 -88 -39 -42 -21
-90 -42 -106 -46 -17 -3 -36 -13 -43 -21 -6 -8 -19 -14 -28 -14 -9 0 -30 -8
-46 -18 -17 -11 -47 -22 -67 -26 -20 -3 -41 -13 -48 -21 -7 -8 -18 -15 -24
-15 -6 0 -27 -8 -46 -19 -19 -10 -51 -22 -70 -26 -19 -4 -46 -16 -59 -26 -13
-11 -30 -19 -38 -19 -8 0 -31 -8 -51 -19 -20 -10 -53 -25 -72 -34 -19 -8 -65
-29 -102 -46 -37 -17 -71 -31 -77 -31 -9 0 -58 -22 -112 -50 -30 -15 -171 -70
-181 -70 -5 0 -21 -9 -35 -20 -14 -11 -32 -20 -41 -20 -8 0 -36 -9 -61 -21
-25 -12 -64 -29 -86 -39 -22 -10 -75 -35 -119 -55 -43 -20 -95 -43 -115 -50
-20 -7 -49 -20 -66 -29 -16 -9 -37 -16 -45 -16 -8 0 -28 -9 -45 -20 -16 -11
-40 -20 -51 -20 -12 0 -27 -6 -33 -14 -7 -8 -27 -18 -44 -21 -18 -4 -39 -13
-47 -20 -8 -7 -34 -19 -58 -26 -23 -7 -47 -18 -53 -26 -6 -7 -18 -13 -26 -13
-7 0 -46 -15 -86 -34 -171 -80 -207 -96 -223 -96 -8 0 -27 -9 -41 -20 -14 -11
-35 -20 -45 -20 -11 0 -31 -9 -45 -20 -14 -11 -34 -20 -45 -20 -10 0 -36 -9
-56 -20 -49 -26 -147 -70 -157 -70 -4 0 -46 -18 -94 -41 -140 -67 -168 -79
-177 -79 -5 0 -27 -9 -49 -19 -84 -40 -131 -60 -158 -66 -15 -4 -30 -11 -33
-16 -2 -5 -24 -13 -47 -20 -23 -6 -49 -17 -57 -24 -8 -7 -29 -16 -47 -20 -17
-3 -37 -12 -43 -20 -6 -8 -26 -17 -43 -21 -18 -3 -48 -14 -67 -24 -47 -23
-114 -54 -175 -80 -27 -11 -67 -30 -87 -40 -20 -11 -43 -20 -50 -20 -7 0 -29
-8 -48 -18 -19 -11 -48 -22 -65 -26 -16 -4 -37 -13 -45 -21 -8 -7 -26 -16 -40
-20 -14 -4 -62 -25 -106 -46 -45 -21 -87 -39 -93 -39 -7 0 -29 -8 -49 -19 -20
-10 -59 -29 -87 -41 -27 -12 -66 -30 -85 -40 -19 -10 -49 -21 -67 -24 -17 -4
-37 -14 -44 -22 -6 -8 -18 -14 -26 -14 -13 0 -44 -13 -178 -75 -27 -12 -68
-30 -90 -39 -22 -9 -57 -25 -77 -36 -20 -11 -44 -20 -53 -20 -9 0 -33 -9 -53
-20 -20 -11 -64 -32 -97 -46 -33 -14 -80 -35 -105 -46 -25 -11 -57 -26 -72
-34 -14 -8 -32 -14 -39 -14 -8 0 -36 -11 -64 -24 -116 -54 -143 -66 -154 -66
-7 0 -29 -8 -49 -19 -20 -10 -57 -27 -82 -38 -25 -11 -65 -30 -90 -42 -25 -11
-52 -21 -61 -21 -9 0 -27 -8 -40 -19 -13 -10 -35 -22 -49 -26 -25 -7 -78 -29
-155 -65 -93 -43 -231 -100 -240 -100 -6 0 -28 -10 -50 -21 -21 -12 -71 -34
-110 -50 -39 -15 -84 -35 -100 -43 -17 -9 -37 -16 -45 -16 -8 0 -24 -7 -34
-15 -11 -8 -26 -15 -33 -15 -8 0 -56 -20 -109 -45 -52 -25 -100 -45 -107 -45
-7 0 -25 -9 -42 -20 -16 -11 -40 -20 -51 -20 -12 0 -32 -8 -45 -18 -13 -10
-58 -31 -99 -47 -41 -16 -84 -35 -95 -42 -11 -7 -25 -13 -33 -13 -7 0 -55 -20
-106 -45 -52 -25 -101 -45 -111 -45 -9 0 -28 -9 -42 -20 -14 -11 -35 -20 -47
-20 -11 0 -32 -9 -46 -20 -14 -11 -31 -20 -38 -20 -13 0 -99 -36 -155 -65 -16
-8 -34 -15 -40 -15 -6 0 -31 -9 -56 -21 -105 -49 -149 -68 -206 -89 -33 -13
-74 -31 -91 -41 -17 -11 -38 -19 -45 -19 -8 0 -36 -12 -64 -25 -27 -14 -55
-25 -61 -25 -6 0 -17 -6 -23 -14 -6 -7 -26 -16 -43 -20 -18 -4 -52 -15 -75
-26 -24 -11 -62 -29 -86 -40 -24 -11 -50 -20 -58 -20 -8 0 -20 -5 -26 -11 -11
-11 -93 -48 -158 -71 -16 -6 -37 -17 -46 -24 -8 -8 -22 -14 -30 -14 -8 0 -25
-8 -38 -17 -28 -19 -276 -73 -337 -73 -23 0 -61 -9 -85 -20 -24 -11 -59 -20
-76 -20 -18 0 -47 -9 -65 -20 -18 -11 -42 -20 -53 -20 -11 0 -33 -9 -50 -20
-16 -11 -37 -20 -46 -20 -9 0 -27 -8 -40 -19 -13 -10 -39 -22 -56 -25 -18 -4
-33 -11 -33 -16 0 -4 -33 -24 -73 -44 -83 -42 -124 -66 -146 -84 -55 -44 -80
-62 -88 -62 -6 0 -28 -17 -51 -37 -23 -21 -55 -49 -72 -63 -52 -41 -72 -59
-132 -116 -65 -61 -220 -246 -264 -314 -16 -25 -32 -47 -35 -50 -3 -3 -14 -18
-23 -35 -9 -16 -30 -52 -46 -80 -31 -55 -73 -137 -100 -200 -10 -22 -27 -61
-39 -88 -12 -26 -21 -55 -21 -65 0 -9 -9 -34 -20 -55 -11 -20 -20 -46 -20 -57
0 -11 -9 -46 -19 -77 -11 -32 -22 -86 -25 -121 -3 -35 -11 -73 -18 -85 -24
-45 -29 -345 -36 -2132 -7 -1709 -8 -1832 -24 -1862 -12 -20 -31 -36 -55 -44
-66 -21 -155 -91 -268 -209 -38 -39 -67 -75 -166 -200 -10 -13 -19 -31 -19
-38 0 -8 -6 -26 -14 -40 -33 -61 -66 -142 -66 -162 0 -11 -7 -37 -16 -58 -36
-87 -41 -464 -7 -557 8 -22 18 -57 23 -78 4 -21 15 -53 23 -70 9 -18 30 -61
47 -97 35 -76 66 -131 77 -139 5 -3 16 -17 25 -32 29 -45 120 -139 192 -198
76 -62 311 -191 349 -191 12 0 31 -6 42 -14 11 -7 45 -16 75 -20 30 -4 74 -14
98 -22 50 -16 192 -19 242 -3 19 6 65 14 102 19 37 5 78 16 90 24 13 7 37 17
53 20 103 23 391 204 477 301 92 104 142 181 201 313 26 57 47 110 47 118 0 7
12 48 26 91 25 75 26 84 21 264 -3 110 -9 195 -16 207 -6 12 -16 45 -21 74 -9
47 -49 157 -71 197 -5 9 -15 32 -24 51 -18 42 -49 94 -90 152 -39 56 -256 272
-303 302 -21 13 -43 30 -50 39 -10 12 -13 354 -12 1688 0 921 2 1742 6 1824 5
153 27 280 65 380 10 28 19 55 19 61 0 7 11 38 26 70 106 246 234 418 421 568
59 47 330 196 357 196 6 0 49 18 96 41 160 77 187 89 202 89 9 0 21 7 28 15 7
8 19 15 28 15 9 0 34 8 56 19 117 54 155 71 161 71 7 0 48 18 131 56 28 13 57
24 65 24 8 0 31 9 51 20 80 43 176 42 257 -1 19 -10 44 -19 54 -19 10 0 35 -9
57 -20 22 -11 46 -20 53 -20 8 0 26 -9 40 -20 14 -11 35 -20 47 -20 12 0 59
-18 103 -39 45 -22 96 -42 114 -46 17 -3 37 -13 44 -21 6 -8 17 -14 23 -14 6
0 34 -11 61 -25 28 -13 56 -25 63 -25 7 0 30 -9 50 -20 20 -10 60 -29 87 -41
101 -44 161 -71 188 -85 16 -8 33 -14 38 -14 10 0 67 -25 165 -71 23 -10 47
-19 54 -19 7 0 34 -9 59 -21 154 -71 245 -109 259 -109 5 0 15 -7 22 -15 7 -8
21 -15 32 -15 11 0 37 -9 57 -19 71 -38 150 -71 169 -71 11 0 25 -6 31 -14 7
-8 24 -17 39 -21 14 -3 51 -18 82 -32 30 -13 71 -32 90 -40 19 -9 52 -24 72
-34 20 -11 42 -19 48 -19 12 0 43 -13 136 -56 28 -13 55 -24 59 -24 8 0 28 -9
150 -65 28 -13 61 -27 75 -31 13 -4 30 -13 38 -20 7 -8 21 -14 30 -14 9 0 31
-9 47 -20 17 -11 36 -20 44 -20 8 0 37 -11 65 -24 28 -13 82 -36 120 -51 38
-15 77 -31 85 -36 9 -4 45 -20 81 -34 36 -15 82 -35 102 -46 20 -10 42 -19 48
-19 7 0 23 -9 37 -20 14 -11 35 -20 47 -20 11 0 35 -9 51 -20 17 -11 37 -20
45 -20 8 0 38 -12 65 -25 28 -14 58 -25 67 -25 9 0 19 -4 23 -9 3 -5 22 -15
43 -22 20 -6 44 -17 52 -24 8 -7 33 -18 55 -24 22 -6 49 -18 59 -26 11 -8 30
-15 42 -15 12 0 27 -6 33 -14 7 -8 27 -18 44 -22 31 -6 51 -15 144 -63 23 -11
48 -21 55 -21 7 0 30 -9 51 -20 20 -11 42 -20 48 -20 12 0 87 -34 161 -71 20
-10 43 -19 51 -19 8 0 20 -7 27 -15 7 -8 28 -17 49 -21 20 -4 47 -12 61 -19
63 -32 138 -65 150 -65 7 0 29 -8 49 -18 83 -42 128 -62 156 -68 17 -4 37 -12
45 -20 8 -7 29 -16 45 -20 17 -3 37 -12 45 -19 8 -7 26 -16 40 -20 14 -4 43
-15 65 -25 22 -10 65 -28 95 -40 54 -21 91 -37 180 -79 25 -11 60 -23 78 -27
17 -4 37 -13 43 -20 6 -8 19 -14 28 -14 14 0 75 -26 161 -69 19 -10 47 -21 63
-25 15 -3 27 -11 27 -16 0 -5 17 -12 37 -16 21 -4 58 -18 82 -31 24 -12 50
-23 56 -23 7 0 18 -6 24 -14 6 -7 27 -16 47 -19 34 -6 95 -31 156 -63 14 -8
32 -14 39 -14 12 0 86 -33 161 -71 20 -10 46 -19 56 -19 11 0 31 -9 45 -20 14
-11 33 -20 42 -20 9 0 33 -8 53 -19 78 -39 242 -111 254 -111 5 0 45 -18 89
-39 44 -22 93 -43 109 -46 16 -3 34 -13 41 -21 6 -8 21 -14 33 -14 11 0 32 -9
46 -20 14 -11 35 -20 48 -20 13 0 40 -9 60 -20 63 -33 150 -70 166 -70 8 0 17
-4 21 -9 3 -5 27 -17 54 -26 27 -9 55 -23 61 -31 7 -7 22 -14 34 -14 11 0 35
-9 51 -20 17 -11 37 -20 45 -20 8 0 33 -9 55 -19 22 -11 69 -31 105 -46 36
-14 78 -32 93 -40 16 -8 33 -15 39 -15 6 0 34 -11 62 -24 114 -53 144 -66 155
-66 7 0 29 -9 49 -19 71 -37 147 -71 158 -71 7 0 17 -7 24 -15 7 -8 20 -15 30
-15 19 0 131 -47 253 -106 16 -8 35 -14 42 -14 13 0 154 -54 184 -71 9 -5 43
-15 76 -24 33 -9 76 -20 95 -25 19 -5 51 -10 70 -10 63 0 288 64 370 105 14 7
41 16 60 20 19 4 40 11 45 15 6 4 48 22 95 40 47 18 103 41 126 51 23 10 48
19 57 19 9 0 31 9 49 20 18 11 40 20 49 20 9 0 22 6 28 14 7 8 27 18 44 21 18
4 46 16 63 26 17 10 39 19 48 19 9 0 34 9 54 19 85 43 150 71 167 71 10 0 26
6 34 13 9 8 36 21 61 29 89 31 116 41 155 59 78 36 138 59 152 59 8 0 31 9 51
20 20 11 64 32 97 46 33 14 78 35 101 45 22 11 47 19 56 19 9 0 21 7 28 15 7
8 20 15 29 15 9 0 39 11 66 25 28 13 57 25 65 25 8 0 29 9 45 20 17 11 39 20
50 20 11 0 29 6 40 14 11 7 31 17 45 21 14 4 43 15 65 26 22 10 74 32 115 49
41 17 89 38 107 46 17 8 36 14 42 14 6 0 28 9 48 20 21 11 45 20 54 20 9 0 22
6 28 14 7 8 27 18 44 22 18 4 48 15 67 25 19 11 44 19 56 19 12 0 32 8 45 19
13 10 40 22 59 26 19 4 44 13 55 20 11 7 34 16 52 20 17 3 37 12 43 20 6 8 26
17 43 21 18 3 48 15 67 24 65 33 127 60 139 60 7 0 29 9 49 19 76 41 123 61
139 61 15 0 36 9 148 61 80 37 138 59 155 59 9 0 28 8 41 18 13 11 38 24 54
30 68 24 147 60 158 71 6 6 20 11 30 11 10 0 31 7 45 15 39 21 169 75 180 75
6 0 23 7 39 15 59 30 142 65 157 65 8 0 27 7 43 15 41 21 134 62 161 69 12 4
22 11 22 16 0 5 15 12 32 16 18 3 53 16 78 27 25 10 65 28 90 39 25 11 66 31
93 44 26 13 54 24 63 24 8 0 32 9 52 19 64 33 129 61 141 61 7 0 29 9 49 20
20 11 55 27 77 36 22 9 63 27 90 39 28 13 61 26 74 30 14 4 38 16 55 26 17 11
41 19 52 19 12 0 27 7 34 15 7 8 20 15 29 15 9 0 36 11 61 24 25 13 59 27 77
30 17 4 37 14 44 22 6 8 19 14 28 14 9 0 33 9 54 20 20 11 42 20 48 20 11 0
104 41 151 66 14 8 33 14 41 14 8 0 50 18 93 40 43 22 83 40 88 40 5 0 34 12
65 26 31 15 74 34 96 44 22 9 60 26 85 38 25 11 56 24 70 27 14 4 30 12 37 17
7 6 27 14 45 18 39 10 141 52 160 66 7 6 40 20 73 33 101 40 199 81 227 96 14
8 33 15 43 15 9 0 33 9 53 20 20 10 64 31 97 46 33 14 78 34 101 45 23 10 47
19 54 19 6 0 24 6 38 14 48 26 141 66 152 66 7 0 24 6 38 14 15 8 47 23 72 34
25 11 71 32 102 46 31 14 60 26 65 26 5 0 24 8 43 19 19 10 46 21 60 25 26 8
90 36 152 67 20 11 43 19 51 19 8 0 41 12 73 26 33 14 77 34 99 44 22 10 75
34 118 54 43 20 83 36 89 36 5 0 27 8 47 18 85 44 149 72 162 72 8 0 24 7 35
15 20 14 45 24 144 59 25 9 61 24 80 33 66 30 115 52 175 78 33 15 78 35 101
46 22 10 48 19 57 19 9 0 18 4 22 9 3 5 22 15 43 22 20 6 48 20 61 30 13 11
31 19 41 19 10 0 28 8 41 19 13 10 38 22 56 25 17 4 37 13 43 21 6 7 23 16 38
20 29 7 95 35 153 66 20 10 42 19 48 19 6 0 53 20 104 45 52 25 99 45 106 45
6 0 11 5 11 10 0 6 12 15 28 21 26 10 26 11 7 21 -11 6 -28 19 -38 29 -10 11
-25 19 -35 19 -9 0 -30 9 -47 20 -16 11 -40 20 -51 20 -12 0 -32 8 -45 19 -13
10 -35 22 -49 26 -46 13 -222 94 -230 105 -3 4 -23 13 -45 20 -22 7 -47 18
-55 25 -8 7 -28 16 -45 19 -16 4 -37 13 -45 20 -8 8 -28 16 -44 20 -16 4 -41
16 -54 27 -14 10 -34 19 -45 19 -11 0 -28 6 -36 13 -9 7 -50 26 -91 42 -41 16
-86 37 -99 47 -13 10 -34 18 -46 18 -12 0 -32 9 -44 19 -12 10 -37 22 -56 25
-19 4 -35 11 -35 16 0 5 -19 14 -42 21 -24 6 -57 19 -74 30 -17 10 -37 19 -44
19 -6 0 -23 9 -37 20 -14 11 -36 20 -48 20 -12 0 -28 6 -34 14 -6 8 -32 19
-56 25 -25 6 -45 15 -45 20 0 5 -17 12 -37 16 -20 4 -48 15 -61 26 -14 10 -31
19 -39 19 -19 0 -140 57 -148 70 -3 5 -13 10 -22 10 -9 0 -37 9 -62 21 -25 12
-71 32 -101 46 -30 14 -72 33 -92 44 -20 10 -44 19 -53 19 -9 0 -34 9 -56 20
-100 51 -116 58 -146 64 -17 4 -37 13 -43 21 -6 7 -26 16 -44 19 -19 4 -39 13
-46 21 -7 8 -22 15 -34 15 -11 0 -39 11 -61 25 -22 13 -47 25 -56 25 -9 0 -22
6 -28 14 -7 8 -27 18 -44 22 -18 4 -48 15 -67 25 -19 11 -39 19 -45 19 -5 0
-28 9 -50 19 -114 55 -151 71 -161 71 -7 0 -17 7 -24 15 -7 8 -21 15 -32 15
-11 0 -37 9 -57 19 -33 17 -67 33 -201 93 -25 11 -62 29 -82 39 -20 11 -44 19
-53 19 -9 0 -33 9 -53 19 -80 41 -148 71 -163 71 -9 0 -22 6 -28 14 -7 8 -25
18 -41 21 -16 3 -34 12 -40 20 -6 7 -30 16 -55 19 -24 4 -49 14 -55 21 -7 8
-18 15 -25 15 -6 0 -33 11 -59 25 -26 14 -52 25 -57 25 -6 0 -22 9 -36 20 -14
11 -35 20 -45 20 -11 0 -32 6 -46 14 -51 27 -164 76 -177 76 -7 0 -18 6 -24
14 -7 8 -27 18 -44 21 -18 4 -39 13 -47 20 -8 7 -28 15 -45 19 -16 4 -50 16
-75 28 -25 11 -63 29 -85 38 -22 10 -61 27 -86 39 -25 12 -50 21 -55 21 -5 0
-44 18 -86 39 -42 21 -90 42 -106 46 -17 3 -36 13 -42 20 -7 8 -27 17 -46 21
-18 3 -38 12 -44 19 -6 8 -25 17 -42 21 -18 3 -65 24 -105 45 -41 22 -81 39
-89 39 -8 0 -32 8 -52 19 -20 10 -57 28 -82 39 -134 60 -168 76 -201 93 -20
10 -44 19 -52 19 -9 0 -22 6 -29 14 -8 7 -30 17 -49 21 -19 4 -48 16 -65 26
-17 10 -38 19 -46 19 -9 0 -27 9 -41 20 -14 11 -33 20 -44 20 -10 0 -31 9 -48
20 -16 11 -37 20 -46 20 -9 0 -52 17 -95 39 -121 59 -187 89 -211 96 -13 4
-23 10 -23 15 0 5 -17 12 -37 16 -21 4 -45 12 -53 19 -8 8 -28 17 -45 21 -16
3 -43 15 -60 24 -16 10 -44 21 -62 25 -17 3 -37 13 -44 21 -6 8 -24 14 -39 14
-15 0 -33 6 -39 14 -7 8 -27 18 -44 22 -18 3 -52 17 -77 30 -25 13 -52 24 -61
24 -9 0 -22 6 -28 14 -7 8 -25 18 -41 21 -16 3 -34 12 -40 20 -6 8 -26 17 -43
21 -30 6 -46 13 -146 64 -22 11 -46 20 -54 20 -8 0 -26 9 -40 20 -14 11 -33
20 -42 20 -17 0 -102 36 -167 70 -20 11 -46 20 -56 20 -11 0 -25 6 -31 13 -6
8 -29 19 -51 26 -22 6 -40 16 -40 20 0 5 -22 14 -50 21 -27 6 -54 18 -61 26
-6 8 -19 14 -28 14 -9 0 -29 9 -46 20 -16 11 -36 20 -44 20 -15 0 -78 26 -141
59 -19 10 -48 21 -64 25 -16 4 -41 16 -54 27 -14 10 -32 19 -41 19 -9 0 -29 9
-46 20 -16 11 -40 20 -52 20 -12 0 -28 6 -35 13 -7 8 -31 20 -53 27 -22 7 -47
18 -55 25 -8 7 -29 16 -47 20 -17 3 -37 12 -43 20 -6 7 -26 16 -44 19 -19 4
-39 13 -46 21 -7 8 -20 15 -29 15 -9 0 -32 8 -51 18 -19 11 -48 22 -64 26 -16
4 -41 16 -54 27 -14 10 -34 19 -44 19 -11 0 -31 9 -45 20 -14 11 -33 20 -42
20 -9 0 -26 7 -37 14 -12 8 -42 20 -67 27 -26 6 -52 17 -58 25 -6 8 -17 14
-23 14 -7 0 -28 9 -49 19 -20 10 -49 22 -64 26 -16 3 -35 12 -43 19 -8 8 -27
16 -42 20 -15 3 -33 12 -40 19 -7 8 -30 17 -50 21 -20 3 -41 13 -48 21 -7 8
-30 20 -53 26 -22 6 -46 17 -54 25 -8 8 -24 14 -35 14 -11 0 -32 6 -46 14 -24
13 -75 37 -207 96 -22 10 -61 28 -86 39 -25 12 -51 21 -56 21 -6 0 -16 6 -22
14 -7 8 -28 17 -49 21 -20 3 -47 13 -60 21 -24 16 -123 45 -145 43 -7 0 -32
-6 -57 -13z m395 -2425 c55 -12 127 -31 160 -41 33 -11 67 -20 76 -20 15 0 66
-21 179 -73 86 -40 260 -145 260 -157 0 -4 10 -12 23 -17 75 -36 289 -274 352
-393 110 -206 131 -264 187 -515 20 -89 23 -126 22 -335 -1 -243 -11 -326 -60
-470 -8 -25 -19 -60 -24 -79 -5 -19 -15 -48 -23 -65 -8 -17 -26 -56 -41 -87
-14 -31 -26 -60 -26 -64 0 -5 -7 -16 -15 -25 -8 -8 -28 -43 -46 -75 -17 -33
-36 -64 -43 -70 -7 -5 -17 -17 -22 -26 -33 -59 -189 -221 -254 -265 -19 -13
-64 -44 -100 -70 -36 -26 -94 -62 -130 -81 -36 -19 -72 -38 -80 -43 -28 -16
-205 -98 -245 -113 -23 -8 -99 -25 -170 -38 -259 -45 -601 -25 -815 48 -111
38 -310 142 -424 223 -208 147 -299 232 -383 359 -54 81 -142 249 -158 301 -4
14 -11 30 -15 35 -5 6 -15 37 -23 70 -9 33 -22 78 -31 100 -8 22 -15 54 -16
71 0 17 -7 51 -17 75 -25 67 -31 426 -8 529 9 41 20 102 24 136 5 34 16 76 24
95 8 19 18 48 22 64 3 17 15 48 25 70 10 22 23 51 29 65 6 14 15 32 20 40 5 8
14 26 20 40 6 14 20 39 31 55 11 17 27 44 36 60 33 61 129 173 236 278 61 59
114 107 119 107 4 0 21 12 36 26 59 55 217 152 314 193 33 14 100 33 189 53
25 5 77 17 115 25 114 26 190 32 385 28 143 -2 208 -8 285 -24z"/>
<path d="M15800 27681 c-8 -5 -41 -14 -72 -20 -31 -7 -62 -19 -68 -27 -7 -7
-18 -14 -24 -14 -40 0 -226 -179 -226 -216 0 -7 -8 -28 -19 -46 -11 -19 -24
-72 -30 -125 -22 -181 22 -319 140 -435 75 -74 108 -94 225 -135 70 -24 93
-28 194 -27 99 1 124 5 182 27 132 52 250 151 296 249 33 71 72 191 72 222 0
45 -42 194 -72 256 -38 80 -157 200 -233 235 -138 64 -143 65 -249 65 -55 0
-108 -4 -116 -9z"/>
<path d="M24275 23940 c-27 -11 -56 -20 -63 -20 -8 0 -25 -9 -39 -20 -14 -11
-35 -20 -45 -20 -11 0 -31 -9 -45 -20 -14 -11 -34 -20 -44 -20 -11 0 -36 -9
-56 -20 -21 -11 -44 -20 -51 -20 -7 0 -32 -10 -55 -21 -99 -51 -117 -59 -129
-59 -7 0 -35 -12 -63 -25 -27 -14 -57 -25 -66 -25 -9 0 -22 -6 -28 -14 -7 -8
-27 -18 -44 -21 -33 -7 -94 -32 -159 -66 -20 -10 -45 -19 -55 -19 -10 0 -52
-17 -94 -39 -42 -21 -92 -41 -112 -45 -19 -4 -40 -13 -47 -21 -7 -8 -21 -15
-32 -15 -10 0 -36 -9 -56 -19 -20 -11 -64 -32 -97 -47 -33 -14 -76 -35 -96
-45 -20 -11 -44 -19 -53 -19 -10 0 -35 -9 -57 -20 -21 -11 -57 -29 -78 -40
-22 -11 -45 -20 -52 -20 -11 0 -38 -12 -154 -66 -28 -13 -55 -24 -62 -24 -6 0
-24 -7 -40 -15 -53 -27 -142 -65 -153 -65 -6 0 -29 -9 -51 -20 -21 -11 -57
-29 -78 -40 -22 -11 -47 -20 -55 -20 -8 0 -36 -11 -62 -25 -26 -14 -55 -25
-64 -25 -10 0 -23 -6 -29 -14 -7 -8 -27 -18 -44 -22 -18 -3 -43 -12 -57 -19
-25 -14 -62 -30 -174 -79 -32 -14 -65 -26 -73 -26 -8 0 -26 -9 -40 -20 -14
-11 -34 -20 -45 -20 -10 0 -36 -9 -56 -19 -77 -40 -148 -71 -161 -71 -16 0
-81 -28 -143 -60 -20 -11 -45 -20 -55 -20 -10 0 -27 -6 -38 -14 -11 -7 -38
-19 -60 -26 -22 -7 -49 -19 -60 -26 -11 -8 -28 -14 -39 -14 -10 0 -33 -9 -50
-19 -17 -10 -45 -22 -63 -26 -17 -3 -37 -13 -44 -21 -6 -8 -19 -14 -28 -14 -9
0 -30 -9 -47 -19 -17 -10 -45 -22 -62 -25 -17 -4 -36 -14 -42 -21 -7 -8 -27
-17 -46 -21 -19 -3 -51 -15 -71 -25 -21 -11 -45 -19 -54 -19 -9 0 -24 -9 -34
-20 -10 -11 -27 -20 -37 -20 -10 0 -35 -8 -56 -19 -20 -10 -51 -22 -69 -25
-17 -4 -37 -14 -44 -22 -6 -8 -21 -14 -32 -14 -11 0 -45 -12 -76 -27 -31 -14
-74 -34 -96 -44 -22 -9 -61 -27 -86 -38 -25 -12 -51 -21 -57 -21 -6 0 -23 -7
-39 -15 -15 -8 -57 -26 -93 -41 -36 -14 -83 -34 -105 -44 -22 -9 -54 -20 -72
-24 -17 -4 -37 -14 -44 -22 -6 -8 -19 -14 -28 -14 -9 0 -33 -9 -54 -20 -20
-11 -45 -20 -54 -20 -10 0 -40 -12 -68 -25 -27 -14 -56 -25 -63 -25 -8 0 -25
-9 -39 -20 -14 -11 -31 -20 -38 -20 -13 0 -111 -41 -157 -66 -14 -8 -32 -14
-40 -14 -7 0 -30 -9 -51 -20 -20 -11 -45 -20 -56 -20 -10 0 -30 -9 -44 -20
-14 -11 -30 -20 -37 -20 -12 0 -91 -30 -155 -60 -105 -48 -159 -70 -172 -70
-8 0 -26 -9 -40 -20 -14 -11 -33 -20 -42 -20 -9 0 -38 -12 -66 -25 -27 -14
-57 -25 -66 -25 -9 0 -22 -7 -29 -15 -7 -8 -21 -15 -32 -15 -10 0 -41 -11 -68
-25 -27 -14 -58 -25 -68 -25 -11 0 -25 -6 -31 -14 -6 -7 -26 -16 -44 -20 -17
-3 -50 -15 -72 -25 -90 -43 -133 -61 -142 -61 -11 0 -109 -41 -153 -64 -14 -8
-41 -16 -61 -20 -21 -4 -42 -13 -49 -21 -7 -8 -18 -15 -24 -15 -6 0 -33 -12
-61 -25 -27 -14 -58 -25 -67 -25 -10 0 -32 -9 -50 -20 -18 -11 -41 -20 -51
-20 -10 0 -35 -8 -55 -19 -81 -41 -129 -61 -169 -71 -23 -6 -45 -15 -48 -20
-3 -6 -14 -10 -23 -10 -10 0 -33 -9 -53 -19 -20 -11 -52 -23 -72 -26 -20 -4
-41 -13 -48 -21 -6 -7 -27 -16 -48 -20 -20 -3 -57 -14 -83 -25 -26 -10 -60
-19 -75 -19 -16 0 -56 -10 -88 -21 -57 -21 -78 -22 -425 -23 l-365 -1 -110 29
c-60 16 -122 35 -137 42 -15 8 -38 14 -51 14 -13 0 -32 7 -43 15 -10 8 -37 20
-59 26 -41 11 -59 18 -157 63 -31 14 -61 26 -67 26 -6 0 -25 9 -43 20 -18 11
-40 20 -49 20 -9 0 -28 9 -42 20 -14 11 -31 20 -37 20 -13 0 -33 9 -180 78
-47 22 -112 50 -145 62 -33 12 -85 32 -115 44 -64 27 -108 43 -170 61 -25 7
-80 29 -124 49 -43 20 -84 36 -90 36 -6 0 -27 8 -46 18 -19 11 -48 22 -65 26
-16 4 -43 13 -60 20 -16 8 -91 37 -165 66 -74 28 -148 57 -165 64 -16 8 -51
23 -78 35 -26 11 -52 21 -58 21 -5 0 -42 15 -82 34 -40 18 -90 39 -112 46 -22
6 -59 20 -82 31 -24 10 -49 19 -57 19 -8 0 -17 4 -21 9 -3 5 -29 17 -58 27
-28 9 -84 32 -123 51 -39 18 -76 33 -82 33 -7 0 -29 9 -49 20 -21 11 -44 20
-51 20 -15 0 -107 37 -207 84 -138 64 -166 76 -177 76 -6 0 -36 12 -67 26 -31
14 -72 33 -91 41 -19 9 -57 25 -85 38 -27 12 -79 34 -115 49 -36 15 -78 33
-93 41 -16 8 -33 15 -39 15 -6 0 -36 12 -67 26 -69 32 -119 54 -191 84 -30 12
-73 31 -96 41 -23 11 -46 19 -52 19 -9 0 -97 43 -142 69 -8 5 -37 18 -65 29
-27 11 -78 32 -111 46 -34 14 -71 26 -82 26 -12 0 -23 4 -27 9 -9 15 -91 68
-117 76 -12 4 -30 13 -38 20 -8 7 -27 15 -42 19 -15 3 -65 24 -112 46 -47 22
-90 40 -96 40 -7 0 -23 9 -37 20 -14 11 -33 20 -42 20 -9 0 -29 9 -46 20 -16
11 -37 20 -45 20 -8 0 -37 12 -65 25 -27 14 -57 25 -66 25 -9 0 -22 6 -28 14
-7 8 -27 17 -45 20 -19 4 -39 13 -46 21 -7 8 -20 15 -30 15 -9 0 -38 11 -64
25 -26 14 -55 25 -64 25 -10 0 -26 6 -37 14 -11 7 -31 17 -45 21 -14 4 -66 27
-116 51 -50 24 -96 44 -101 44 -6 0 -16 7 -23 15 -7 8 -23 15 -35 15 -12 0
-34 9 -48 20 -14 11 -31 20 -39 20 -8 0 -30 9 -51 19 -20 10 -49 22 -64 26
-16 3 -39 14 -53 23 -26 17 -45 25 -142 60 -62 22 -171 71 -230 102 -20 11
-43 20 -51 20 -8 0 -26 9 -40 20 -14 11 -30 20 -37 20 -6 0 -68 27 -138 61
-206 98 -226 107 -252 115 -14 3 -31 11 -38 17 -16 13 -113 54 -158 68 -18 5
-37 16 -44 24 -7 8 -23 15 -35 15 -12 0 -28 7 -35 15 -6 8 -22 17 -33 21 -25
7 -57 21 -139 58 -71 32 -127 33 -181 4 -56 -31 -202 -140 -257 -191 -55 -50
-156 -138 -207 -179 -36 -28 -92 -79 -286 -259 -45 -42 -100 -92 -123 -111
-22 -18 -97 -90 -165 -158 -69 -69 -159 -157 -200 -195 -41 -39 -114 -115
-164 -169 -49 -54 -105 -114 -124 -134 -19 -21 -55 -62 -80 -92 -62 -75 -105
-123 -177 -200 -168 -181 -284 -353 -284 -422 0 -22 11 -51 28 -76 22 -33 132
-158 203 -231 8 -9 30 -36 49 -61 19 -25 41 -52 49 -61 15 -16 103 -140 126
-178 5 -9 19 -29 31 -46 11 -16 24 -37 27 -45 4 -8 20 -35 36 -60 33 -50 91
-164 91 -177 0 -5 5 -14 12 -21 6 -6 18 -28 25 -49 78 -213 118 -381 127 -533
3 -58 11 -148 17 -200 10 -78 9 -126 -5 -262 -9 -92 -16 -191 -16 -220 0 -30
-7 -78 -15 -108 -9 -30 -20 -85 -25 -123 -5 -37 -15 -77 -21 -89 -6 -12 -18
-49 -26 -82 -7 -33 -18 -65 -22 -70 -5 -6 -14 -31 -21 -55 -6 -24 -26 -76 -44
-115 -18 -39 -36 -78 -40 -86 -3 -8 -20 -35 -36 -60 -16 -25 -45 -72 -65 -105
-19 -33 -48 -77 -63 -98 -15 -20 -40 -56 -57 -80 -106 -150 -284 -347 -395
-437 -201 -163 -249 -196 -416 -284 -18 -9 -37 -23 -44 -31 -7 -8 -20 -15 -29
-15 -9 0 -29 -7 -46 -16 -48 -25 -175 -74 -192 -74 -9 0 -24 -6 -32 -13 -24
-20 -165 -54 -256 -62 -44 -4 -105 -14 -135 -23 -47 -15 -101 -17 -365 -15
-207 1 -325 5 -355 13 -25 7 -83 18 -130 25 -47 7 -103 20 -125 29 -54 21
-118 20 -144 -1 -12 -10 -30 -45 -42 -78 -11 -33 -27 -74 -35 -92 -8 -17 -17
-46 -20 -65 -4 -18 -14 -51 -24 -73 -25 -58 -49 -132 -64 -195 -8 -30 -18 -68
-24 -85 -16 -42 -41 -148 -56 -231 -7 -38 -16 -76 -21 -84 -8 -13 -36 -132
-56 -240 -6 -30 -19 -89 -30 -131 -10 -42 -19 -87 -19 -101 0 -13 -7 -48 -15
-78 -9 -30 -20 -91 -25 -135 -6 -44 -17 -100 -25 -124 -8 -25 -15 -61 -15 -80
0 -20 -9 -76 -19 -126 -10 -49 -22 -124 -26 -165 -4 -41 -13 -104 -20 -140 -8
-36 -19 -122 -25 -191 -6 -70 -14 -140 -19 -156 -5 -16 -12 -103 -15 -194 -4
-90 -15 -216 -24 -279 -24 -171 -24 -1353 0 -1545 9 -71 20 -200 23 -285 3
-85 12 -191 20 -235 7 -44 16 -125 20 -180 4 -55 12 -111 17 -125 5 -14 16
-79 23 -145 8 -66 21 -149 29 -185 9 -36 16 -83 16 -105 0 -22 9 -73 20 -114
11 -41 20 -87 20 -101 0 -15 7 -49 15 -76 9 -27 20 -83 25 -124 6 -41 14 -86
20 -100 6 -14 17 -59 24 -100 26 -134 38 -184 57 -245 10 -33 21 -80 25 -105
4 -25 12 -56 19 -70 7 -14 16 -50 20 -80 4 -30 14 -68 22 -83 8 -16 18 -50 23
-75 5 -26 15 -68 24 -94 40 -121 48 -146 57 -183 5 -22 16 -54 24 -72 8 -17
15 -39 15 -50 1 -10 8 -36 16 -58 8 -22 21 -60 29 -85 28 -94 47 -146 66 -181
10 -20 19 -45 19 -55 0 -10 9 -41 20 -69 10 -27 31 -81 45 -120 15 -38 33 -84
41 -102 8 -17 14 -37 14 -45 0 -7 9 -30 20 -51 11 -20 20 -43 20 -50 0 -7 9
-29 20 -50 11 -20 20 -42 20 -48 0 -5 11 -35 25 -65 14 -30 25 -58 25 -62 0
-4 9 -25 20 -47 11 -22 20 -45 20 -53 0 -8 9 -25 20 -39 11 -14 20 -33 20 -42
0 -9 6 -25 14 -36 7 -11 17 -31 21 -45 7 -23 43 -102 136 -296 22 -45 39 -88
39 -97 0 -8 7 -17 14 -20 8 -3 18 -22 22 -42 3 -19 10 -38 15 -41 5 -3 36 -60
70 -127 33 -67 80 -158 104 -202 25 -44 53 -96 63 -115 10 -19 29 -53 42 -75
12 -22 38 -69 58 -105 19 -36 39 -71 45 -78 5 -7 17 -26 26 -42 9 -16 43 -75
76 -131 33 -56 67 -113 75 -128 9 -14 29 -46 45 -70 17 -23 37 -55 45 -70 13
-23 44 -71 103 -161 9 -14 41 -61 72 -105 30 -44 81 -118 112 -165 32 -47 63
-89 69 -95 6 -5 26 -32 45 -60 19 -27 37 -52 40 -55 3 -3 21 -27 40 -53 67
-94 81 -112 102 -137 12 -14 38 -47 57 -75 36 -51 233 -298 260 -325 9 -9 29
-34 45 -55 17 -22 46 -57 64 -78 19 -21 42 -47 50 -59 9 -11 25 -30 36 -42 11
-11 40 -46 65 -77 202 -251 878 -949 1090 -1124 25 -20 79 -72 121 -114 42
-42 102 -96 134 -121 33 -25 67 -52 76 -60 9 -8 36 -32 60 -52 24 -21 71 -61
104 -89 33 -28 71 -58 85 -67 14 -9 44 -32 67 -52 23 -19 52 -43 65 -52 13
-10 51 -39 85 -65 170 -131 205 -157 259 -193 33 -22 84 -58 114 -80 30 -23
93 -66 140 -97 47 -31 89 -62 93 -70 4 -7 22 -20 40 -28 61 -30 87 -46 87 -56
0 -5 11 -14 25 -19 13 -5 43 -22 66 -37 43 -28 60 -39 171 -106 35 -21 83 -51
108 -67 25 -16 52 -33 60 -37 14 -6 80 -44 156 -88 160 -94 285 -165 292 -165
5 0 17 -9 27 -20 10 -11 26 -20 35 -20 9 0 20 -4 26 -9 8 -9 87 -50 363 -191
60 -30 114 -60 122 -66 8 -6 31 -17 52 -23 20 -7 37 -17 37 -21 0 -5 17 -14
39 -20 21 -5 44 -17 51 -25 7 -8 20 -15 29 -15 9 0 26 -7 38 -15 12 -9 40 -22
62 -30 23 -8 73 -30 113 -49 39 -20 77 -36 84 -36 6 0 17 -6 23 -14 7 -8 24
-17 39 -20 15 -4 45 -15 67 -26 22 -10 67 -30 100 -45 33 -15 72 -33 87 -41
14 -8 32 -14 40 -14 7 0 30 -9 51 -20 20 -11 42 -20 47 -20 6 0 27 -7 48 -16
20 -10 57 -25 82 -34 25 -10 70 -28 100 -40 30 -12 73 -29 95 -37 22 -8 47
-20 55 -28 8 -7 33 -16 54 -19 21 -4 48 -13 60 -21 12 -7 37 -16 56 -20 19 -4
40 -12 47 -17 7 -5 34 -16 60 -23 26 -7 80 -25 118 -40 39 -15 92 -33 119 -41
26 -7 54 -18 60 -23 7 -6 32 -13 56 -17 25 -4 62 -15 82 -25 21 -11 48 -19 60
-19 13 0 39 -8 58 -18 19 -11 55 -22 80 -26 25 -4 54 -13 65 -20 11 -8 41 -17
65 -21 25 -4 54 -13 65 -20 11 -7 45 -16 75 -20 30 -4 63 -12 73 -17 10 -5 46
-14 80 -19 34 -6 75 -16 92 -24 16 -7 50 -17 75 -20 25 -4 74 -15 110 -25 36
-10 88 -22 115 -28 28 -6 68 -15 90 -20 144 -36 186 -46 235 -52 30 -4 84 -14
120 -23 73 -19 202 -43 335 -62 50 -7 115 -18 145 -24 85 -17 255 -41 360 -52
52 -5 133 -16 180 -24 47 -8 148 -20 224 -26 77 -6 164 -15 195 -20 31 -5 142
-14 246 -19 105 -6 242 -17 305 -24 175 -22 1120 -22 1295 -1 72 9 213 20 315
25 102 6 226 17 275 24 50 8 145 18 213 21 68 4 138 11 155 16 18 6 84 14 147
19 63 6 142 16 175 24 33 8 100 17 149 21 48 4 102 13 120 20 17 7 58 16 91
20 33 4 78 13 100 20 22 7 67 16 100 20 59 6 172 28 333 66 45 10 95 19 110
19 15 0 53 9 85 20 31 11 68 20 82 20 14 0 51 9 82 20 32 11 73 20 93 20 19 1
53 8 75 16 22 9 65 20 95 25 30 6 66 16 80 24 14 7 47 16 75 21 27 4 67 15 90
25 22 10 52 19 66 19 15 0 46 9 70 20 24 11 55 20 69 20 14 0 43 9 65 20 22
11 51 20 65 20 14 0 43 9 65 20 22 11 50 19 63 20 12 0 40 9 60 19 21 11 56
23 77 26 22 4 45 11 51 16 5 5 37 15 69 24 32 8 63 19 69 25 5 5 21 10 35 10
15 0 49 12 76 25 28 14 59 25 70 25 11 0 34 9 50 20 17 11 39 20 50 20 11 0
36 8 55 19 19 10 51 22 70 26 19 4 44 14 55 21 11 8 26 14 35 14 8 0 31 9 51
19 20 11 52 23 72 26 20 4 41 13 48 21 6 8 19 14 28 14 9 0 39 11 66 25 28 13
57 25 65 25 9 0 24 6 35 14 11 7 31 17 45 21 35 10 108 42 150 64 19 10 49 22
67 25 17 4 37 14 44 22 6 8 17 14 25 14 7 0 33 11 57 23 24 13 53 27 63 30 11
4 26 11 34 16 8 5 38 20 65 32 76 33 317 147 345 163 14 7 93 49 175 91 83 43
168 88 190 101 22 13 59 32 81 43 23 11 45 24 48 29 3 6 20 13 36 17 17 4 30
10 30 14 0 3 33 24 73 45 39 21 92 51 117 66 52 33 86 53 133 77 17 9 34 20
37 23 3 4 19 15 35 24 57 32 215 127 272 164 23 15 63 40 90 56 38 23 204 133
477 316 46 31 103 71 161 115 33 24 81 59 108 76 26 18 47 36 47 40 0 4 8 10
19 14 10 3 32 17 47 31 16 13 34 28 39 32 58 41 140 106 186 144 30 27 61 48
67 48 7 0 12 5 12 10 0 6 13 18 28 28 31 18 111 85 204 170 32 29 68 60 80 70
47 38 216 191 263 238 28 27 97 92 155 144 129 117 351 339 530 529 74 79 156
166 182 193 26 27 89 99 139 161 51 62 107 126 123 143 33 32 93 102 171 199
27 33 54 65 61 70 6 6 41 48 76 95 35 47 79 101 98 120 18 19 49 60 69 90 37
56 41 62 86 113 14 15 25 34 25 41 0 6 18 31 40 54 22 22 40 45 40 49 0 8 47
78 70 104 31 36 42 52 105 145 36 53 65 99 65 102 0 3 10 16 21 28 23 24 29
34 67 103 12 22 27 41 32 41 6 0 10 6 10 14 0 8 11 28 25 44 14 17 25 32 25
35 0 2 20 35 45 73 25 38 50 76 55 84 5 8 21 32 35 53 14 21 25 40 25 42 0 10
64 105 71 105 4 0 10 13 14 30 4 16 10 32 15 35 9 6 112 183 173 298 21 40 58
108 82 152 24 44 70 131 102 192 32 62 67 130 78 152 11 21 25 45 31 52 7 8
15 28 18 46 4 17 14 37 22 44 8 6 14 16 14 21 0 10 46 114 61 138 5 8 14 26
20 40 18 40 55 121 78 171 12 25 21 50 21 56 0 6 7 16 15 23 8 7 15 23 15 35
0 12 9 34 20 48 11 14 20 32 20 41 0 8 11 36 25 62 14 26 25 53 25 61 0 8 6
27 14 41 26 49 55 117 62 147 4 17 16 44 26 60 10 17 18 38 18 48 0 10 9 35
20 57 11 22 20 48 20 60 0 11 9 37 20 57 11 21 20 46 20 56 0 10 8 34 19 55
10 20 21 55 25 76 4 21 13 48 21 60 7 12 16 40 20 63 4 23 12 47 20 53 7 6 16
32 20 58 3 26 12 56 20 67 7 11 16 41 20 65 4 25 16 59 26 76 10 17 19 45 19
62 0 17 9 54 20 82 11 28 20 61 20 73 0 12 7 35 15 51 8 16 18 47 21 70 3 22
14 68 24 101 19 65 43 154 64 250 8 33 21 78 30 100 8 22 15 56 16 75 0 19 7
48 15 64 8 15 19 66 25 112 5 46 13 92 19 102 5 9 14 53 20 95 6 43 15 87 21
97 6 10 14 58 19 107 5 48 14 99 19 113 5 14 15 74 21 133 7 59 18 125 26 148
8 23 15 67 15 99 0 32 9 109 19 171 11 63 24 177 31 254 6 77 15 158 20 180 5
22 12 123 15 225 4 102 13 268 21 370 15 201 18 808 4 970 -5 52 -13 203 -19
335 -6 132 -18 283 -26 335 -8 52 -19 161 -25 242 -6 81 -14 158 -19 172 -6
13 -13 64 -16 113 -4 48 -15 132 -26 185 -10 53 -19 121 -19 151 0 30 -9 80
-20 112 -11 32 -20 80 -20 107 0 27 -7 64 -15 83 -8 20 -19 72 -25 116 -6 45
-16 93 -21 107 -6 15 -16 59 -24 97 -17 94 -29 145 -92 375 -14 52 -28 115
-32 140 -4 25 -10 50 -14 56 -6 10 -49 165 -68 249 -5 22 -16 54 -24 72 -8 17
-15 42 -15 55 0 13 -9 40 -20 61 -11 20 -20 47 -20 59 -1 13 -8 41 -16 63 -9
22 -20 58 -25 80 -5 22 -16 54 -23 70 -8 17 -28 71 -45 120 -51 153 -63 189
-82 235 -25 64 -49 139 -58 181 -4 20 -15 47 -24 60 -10 13 -17 30 -17 39 0 8
-9 32 -20 53 -11 20 -20 43 -20 49 0 7 -11 36 -25 63 -13 28 -25 58 -25 68 0
11 -9 30 -20 44 -11 14 -20 33 -20 42 0 9 -9 30 -20 46 -11 17 -20 37 -20 45
0 8 -9 26 -20 40 -11 14 -20 32 -20 40 0 8 -8 31 -19 50 -10 19 -22 50 -25 67
-4 18 -11 35 -15 38 -8 5 -40 67 -82 160 -52 117 -196 398 -221 435 -10 13
-18 32 -18 41 0 9 -6 22 -14 28 -8 7 -17 24 -21 39 -4 15 -14 35 -22 44 -14
16 -63 101 -99 173 -8 17 -28 50 -44 75 -16 25 -35 56 -40 70 -6 14 -17 32
-25 40 -7 8 -27 43 -44 76 -17 34 -38 67 -46 74 -8 7 -15 16 -15 21 0 4 -15
29 -32 55 -35 49 -72 109 -84 134 -4 8 -18 28 -31 43 -13 16 -23 35 -23 42 0
7 -3 15 -7 17 -5 2 -16 14 -25 28 -57 82 -155 225 -164 241 -6 11 -20 30 -31
42 -17 20 -61 82 -88 126 -16 26 -90 123 -119 156 -14 17 -26 34 -26 38 0 5
-16 28 -35 51 -19 24 -35 46 -35 50 0 4 -16 24 -36 44 -20 20 -51 60 -69 87
-19 28 -55 73 -80 100 -26 28 -57 66 -69 85 -22 33 -126 153 -151 175 -7 6
-25 28 -41 50 -16 22 -52 65 -80 95 -29 30 -70 78 -91 105 -45 57 -764 777
-928 930 -59 55 -115 107 -124 116 -9 8 -45 39 -81 68 -36 29 -69 58 -75 64
-5 7 -37 34 -70 61 -33 27 -64 54 -70 60 -5 6 -35 29 -65 52 -30 22 -75 60
-100 83 -25 23 -70 59 -100 79 -30 20 -70 50 -89 67 -62 55 -80 70 -116 95
-20 14 -54 41 -77 60 -56 48 -109 79 -133 79 -11 0 -42 -9 -70 -19z m-15005
-4024 c136 -12 190 -25 190 -46 0 -4 2 -14 5 -22 3 -8 -10 -19 -37 -29 -24 -9
-77 -29 -118 -45 -41 -16 -102 -49 -135 -74 -33 -25 -71 -53 -85 -61 -14 -9
-40 -30 -59 -48 -18 -17 -45 -41 -60 -54 -15 -12 -51 -49 -79 -82 -68 -77 -72
-82 -72 -93 0 -5 -9 -20 -19 -34 -46 -58 -90 -225 -99 -368 -5 -98 23 -275 58
-367 46 -119 111 -205 284 -379 150 -149 214 -200 276 -219 14 -4 44 -21 68
-37 35 -24 41 -32 32 -48 -11 -21 -76 -38 -190 -50 -104 -11 -616 6 -720 24
-47 8 -107 17 -135 21 -27 4 -60 13 -72 21 -12 8 -30 14 -40 14 -10 0 -30 6
-45 14 -14 8 -43 19 -65 26 -21 7 -78 34 -128 59 -101 51 -203 145 -242 222
-37 73 -80 181 -98 244 -9 33 -25 90 -36 126 -28 97 -28 394 1 476 11 32 20
71 20 88 0 16 8 44 18 60 11 17 22 47 26 67 3 20 13 41 20 47 8 7 17 23 20 36
6 24 40 79 67 109 8 8 37 41 64 74 123 142 294 242 480 278 39 7 86 18 105 24
19 6 133 15 254 20 120 5 221 12 224 15 9 9 171 5 322 -9z m10185 -29 c50 -9
115 -17 146 -17 31 0 89 -8 130 -19 41 -10 102 -21 137 -24 34 -4 75 -13 90
-21 15 -7 51 -16 81 -20 30 -4 66 -13 81 -21 15 -8 55 -19 88 -24 33 -5 74
-17 91 -25 16 -9 39 -16 51 -16 11 0 38 -9 60 -20 22 -11 49 -20 61 -20 21 0
75 -22 151 -61 20 -10 45 -19 55 -19 10 0 33 -9 51 -20 18 -11 37 -20 43 -20
23 0 352 -169 489 -250 19 -12 51 -31 72 -43 20 -12 67 -40 105 -61 37 -21 87
-54 110 -72 23 -19 45 -34 50 -34 4 0 20 -10 35 -23 15 -12 73 -56 129 -97
126 -92 213 -164 344 -283 100 -91 396 -385 511 -507 101 -109 363 -440 394
-500 7 -14 16 -27 20 -30 10 -7 181 -261 191 -285 5 -11 23 -40 39 -65 16 -25
34 -55 40 -68 5 -12 34 -64 63 -115 30 -51 61 -105 69 -122 8 -16 19 -39 25
-50 10 -19 22 -46 78 -170 51 -112 88 -201 125 -300 12 -33 31 -80 41 -105 16
-39 46 -131 114 -345 9 -27 22 -75 30 -105 7 -30 20 -80 28 -110 26 -93 39
-152 53 -225 7 -38 19 -95 28 -125 16 -59 30 -137 47 -265 6 -44 19 -119 30
-167 10 -48 19 -115 20 -150 0 -74 13 -199 28 -283 7 -38 11 -230 11 -513 0
-361 -3 -465 -14 -515 -8 -35 -18 -121 -21 -193 -4 -71 -16 -172 -26 -226 -10
-53 -19 -114 -19 -136 0 -22 -9 -68 -19 -103 -10 -35 -21 -93 -24 -129 -3 -36
-12 -81 -20 -100 -8 -19 -18 -59 -21 -89 -4 -30 -13 -69 -21 -88 -8 -18 -17
-60 -21 -93 -4 -33 -10 -63 -15 -65 -4 -3 -13 -31 -19 -63 -6 -31 -20 -78 -31
-104 -10 -26 -19 -59 -19 -75 -1 -15 -9 -46 -20 -68 -11 -22 -19 -48 -20 -58
0 -11 -7 -33 -15 -50 -8 -18 -21 -52 -29 -77 -8 -25 -24 -70 -36 -100 -12 -30
-29 -73 -36 -95 -8 -22 -30 -72 -49 -111 -19 -39 -35 -74 -35 -79 0 -5 -13
-36 -29 -69 -16 -34 -40 -86 -55 -116 -61 -129 -185 -350 -196 -350 -5 0 -12
-10 -16 -22 -3 -13 -13 -31 -21 -40 -14 -16 -34 -48 -65 -108 -7 -14 -16 -29
-21 -35 -4 -5 -22 -33 -40 -61 -18 -28 -40 -58 -49 -68 -10 -10 -18 -21 -18
-26 0 -10 -69 -114 -125 -187 -98 -129 -317 -404 -370 -463 -31 -36 -87 -99
-123 -140 -81 -91 -273 -284 -362 -363 -36 -31 -81 -71 -100 -88 -39 -34 -212
-173 -254 -203 -15 -11 -39 -30 -54 -43 -15 -13 -30 -23 -34 -23 -4 0 -13 -6
-20 -13 -7 -7 -24 -20 -38 -30 -14 -9 -52 -37 -85 -62 -33 -24 -88 -61 -123
-82 -102 -61 -171 -104 -290 -180 -37 -24 -71 -43 -76 -43 -5 0 -32 -16 -61
-35 -74 -49 -524 -265 -552 -265 -5 0 -26 -9 -48 -20 -22 -11 -45 -20 -53 -20
-7 0 -30 -9 -50 -19 -21 -11 -56 -23 -77 -27 -22 -4 -49 -13 -60 -20 -11 -8
-30 -14 -42 -14 -12 0 -44 -8 -70 -19 -26 -10 -70 -21 -96 -25 -26 -4 -62 -13
-80 -20 -18 -8 -58 -17 -90 -21 -32 -3 -73 -12 -90 -20 -18 -7 -69 -15 -114
-19 -46 -4 -127 -13 -180 -22 -72 -11 -212 -17 -528 -21 -402 -5 -1054 8
-1100 22 -12 4 -27 16 -34 27 -17 28 -7 37 108 87 52 23 109 53 127 66 18 14
35 25 39 25 15 0 265 221 265 235 0 3 19 31 43 62 57 76 81 129 107 238 28
115 31 275 8 322 -9 18 -20 47 -23 65 -13 58 -53 124 -115 189 -33 35 -60 67
-60 71 0 5 -4 8 -9 8 -6 0 -24 13 -41 29 -59 54 -176 105 -290 127 -158 30
-361 36 -980 29 -683 -9 -2947 -8 -2961 1 -5 3 -153 7 -328 9 -350 4 -400 8
-430 36 -29 27 -26 49 12 104 39 58 138 121 206 131 25 3 71 15 101 25 73 24
302 49 525 56 99 3 392 0 650 -7 990 -27 2729 -6 3175 39 53 6 183 11 290 12
176 2 203 0 275 -20 98 -28 200 -64 240 -85 17 -9 37 -16 46 -16 9 0 22 -6 28
-13 6 -8 29 -20 51 -27 22 -7 45 -19 51 -27 6 -7 19 -13 29 -13 9 0 45 -18 79
-40 34 -22 66 -40 71 -40 10 0 111 -80 150 -119 15 -14 57 -56 95 -92 83 -78
190 -191 225 -237 14 -18 43 -44 66 -58 82 -49 98 -86 64 -156 -35 -74 -23
-275 21 -346 28 -45 135 -23 346 74 17 8 34 14 37 14 3 0 28 10 54 21 26 12
72 33 102 46 30 13 62 28 70 34 8 5 33 18 55 29 22 11 54 29 70 40 17 11 48
29 70 40 22 11 58 31 80 45 43 27 47 29 85 45 14 6 43 22 65 35 22 14 76 43
120 65 93 48 124 65 145 80 25 17 83 50 120 66 19 9 39 22 43 30 4 8 14 14 22
14 8 0 18 6 22 13 4 6 19 18 34 25 14 7 38 25 55 40 16 15 54 43 84 62 30 19
62 42 71 50 9 8 27 23 40 33 70 52 156 121 170 135 9 10 44 42 79 72 115 101
519 522 544 568 5 9 18 23 28 30 10 7 18 17 18 22 0 5 10 20 23 32 21 22 57
65 124 148 15 19 33 41 40 48 6 6 15 21 18 32 3 11 10 20 14 20 10 0 231 331
231 345 0 2 18 30 39 63 22 33 43 72 47 87 4 14 13 29 20 32 8 3 14 10 14 17
0 6 11 28 25 48 14 20 25 44 25 52 0 8 3 16 8 18 19 8 193 380 228 488 10 30
26 73 36 96 10 22 18 46 18 53 0 6 7 23 16 37 9 14 23 48 30 77 7 29 17 66 22
82 33 102 51 165 58 200 3 22 12 51 19 65 7 14 15 47 19 74 3 27 12 59 20 70
7 12 16 48 21 81 4 33 13 74 20 91 7 17 16 59 20 94 4 35 12 77 17 94 5 17 18
96 28 176 11 80 24 177 29 215 15 118 32 409 35 620 3 185 -22 607 -37 632 -3
5 -13 65 -21 134 -9 68 -25 167 -36 219 -12 52 -27 124 -35 160 -8 36 -17 85
-20 110 -4 25 -15 71 -26 103 -10 31 -19 66 -19 78 0 11 -5 30 -12 42 -10 20
-29 84 -63 217 -34 136 -58 216 -67 227 -5 6 -26 62 -48 125 -36 107 -59 165
-79 198 -5 8 -20 40 -34 70 -87 191 -189 406 -227 480 -16 30 -46 86 -65 124
-20 37 -41 73 -46 80 -14 16 -74 112 -103 166 -13 25 -38 59 -54 75 -16 17
-45 55 -65 85 -30 47 -108 151 -149 200 -7 8 -26 32 -41 53 -16 22 -46 55 -68
75 -21 20 -39 42 -39 49 0 7 -7 13 -15 13 -8 0 -15 5 -15 10 0 6 -91 101 -203
213 -196 195 -223 221 -352 334 -33 28 -76 65 -95 82 -19 17 -38 31 -42 31 -5
0 -16 8 -26 18 -11 9 -32 26 -47 37 -29 21 -92 68 -111 84 -5 4 -20 13 -31 20
-12 6 -28 17 -35 23 -25 23 -73 54 -105 69 -18 7 -33 17 -33 20 0 4 -12 12
-27 18 -16 6 -64 31 -108 56 -44 25 -99 54 -122 65 -23 11 -45 25 -48 30 -3 4
-19 11 -35 15 -17 4 -30 11 -30 15 0 5 -18 15 -40 21 -22 7 -45 18 -51 26 -6
7 -18 13 -25 13 -13 0 -93 34 -156 67 -29 15 -146 54 -221 73 -26 7 -50 17
-53 21 -3 5 -13 9 -22 9 -20 0 -136 34 -209 62 -45 17 -219 58 -249 58 -6 0
-21 -9 -34 -20 -22 -19 -24 -27 -27 -183 -4 -209 -23 -310 -65 -357 -13 -14
-40 -59 -61 -100 -77 -152 -143 -266 -167 -290 -3 -3 -23 -27 -45 -55 -22 -27
-55 -63 -74 -80 -19 -16 -45 -39 -57 -50 -97 -87 -156 -119 -304 -164 -58 -18
-123 -39 -144 -47 -143 -54 -445 -77 -735 -55 -164 12 -213 27 -219 67 -2 17
15 28 97 67 55 26 104 47 108 47 8 0 68 40 148 100 68 50 210 195 250 255 89
134 122 220 136 350 16 152 6 239 -42 343 -82 177 -128 247 -203 312 -44 38
-131 92 -186 116 -19 8 -44 19 -55 24 -11 5 -51 17 -90 27 -65 16 -159 17
-1295 16 -674 -1 -1369 -6 -1545 -10 -176 -4 -653 -8 -1060 -7 -666 1 -743 2
-772 17 -48 26 -60 42 -55 76 6 40 117 152 188 189 30 16 149 43 224 52 36 4
1363 6 2950 5 2633 -1 2893 -3 2975 -18z m-10552 -3196 c20 -12 37 -28 37 -34
0 -7 9 -18 20 -25 34 -21 27 -76 -18 -136 -226 -305 -291 -614 -189 -905 43
-124 92 -189 260 -346 12 -10 53 -35 91 -55 38 -19 84 -42 100 -51 17 -9 63
-24 101 -34 39 -9 81 -23 94 -30 l25 -13 -35 -18 c-28 -16 -60 -19 -189 -21
-85 -2 -177 -7 -203 -13 -26 -5 -145 -10 -263 -10 -466 0 -676 59 -854 239
-118 119 -180 221 -225 368 -22 72 -25 101 -27 255 -1 139 1 180 14 209 9 20
19 56 23 80 9 52 47 159 77 214 59 109 149 193 258 239 25 10 69 30 99 43 29
12 64 23 78 23 13 0 38 8 56 17 47 24 143 31 402 29 221 -1 232 -2 268 -25z
m9492 -264 c99 -15 139 -26 295 -82 58 -21 169 -78 235 -120 36 -23 126 -94
140 -111 6 -6 40 -36 75 -66 78 -64 210 -202 268 -278 23 -30 47 -62 54 -70
17 -20 58 -80 58 -85 0 -3 16 -30 35 -60 20 -31 44 -75 55 -99 10 -24 23 -47
29 -50 6 -4 11 -17 11 -28 0 -12 6 -29 14 -37 8 -9 19 -32 24 -51 6 -19 25
-69 42 -110 30 -73 43 -113 75 -250 9 -36 20 -83 26 -105 5 -22 14 -69 19
-105 6 -36 18 -114 28 -175 24 -156 24 -525 -1 -690 -22 -141 -51 -284 -77
-375 -11 -36 -24 -81 -29 -100 -5 -19 -21 -66 -36 -105 -15 -38 -33 -88 -41
-110 -29 -78 -140 -291 -196 -377 -32 -48 -58 -92 -58 -97 0 -6 -9 -16 -20
-23 -11 -7 -20 -16 -20 -21 0 -11 -69 -104 -153 -207 -76 -93 -237 -251 -277
-272 -14 -7 -27 -15 -30 -18 -42 -46 -415 -229 -467 -230 -10 -1 -36 -8 -58
-16 -22 -9 -68 -20 -102 -25 -34 -4 -73 -15 -86 -23 -16 -11 -61 -18 -143 -22
-65 -3 -144 -12 -174 -19 -74 -18 -256 -6 -294 18 -14 10 -26 24 -26 31 0 13
114 76 136 76 5 0 51 21 103 47 106 54 156 100 337 308 44 50 122 187 134 234
5 20 16 61 24 91 10 35 17 100 18 180 1 107 -2 134 -22 190 -73 206 -209 374
-355 436 -219 94 -277 103 -760 109 -378 5 -2005 19 -2145 19 -36 -1 -200 3
-365 8 -165 4 -471 13 -680 18 -611 16 -711 40 -655 154 16 34 28 45 58 54 35
11 179 33 307 48 103 11 4260 6 4350 -5 298 -40 636 -38 768 4 43 13 84 28 90
33 7 5 23 13 37 17 42 13 171 113 220 169 79 92 141 246 139 347 0 65 -61 278
-89 312 -5 7 -30 37 -54 67 -58 74 -161 154 -214 166 -15 4 -39 13 -53 20 -14
7 -73 23 -130 35 -97 21 -137 23 -589 29 -475 5 -553 11 -536 39 3 5 26 15 51
22 25 7 45 17 45 21 0 4 6 8 13 8 8 0 32 12 53 28 21 15 50 33 64 40 54 28 74
42 138 98 36 33 73 64 82 71 21 15 110 145 110 160 0 11 7 26 48 108 50 99 59
389 13 450 -4 5 -13 28 -19 50 -6 22 -25 65 -42 95 -16 30 -34 65 -40 78 -5
12 -14 22 -20 22 -20 0 -43 71 -31 96 17 37 69 39 266 11z m-9075 -2596 c20
-6 50 -22 68 -35 l32 -23 -27 -11 c-16 -6 -41 -14 -58 -18 -98 -23 -321 -202
-469 -377 -81 -95 -112 -170 -152 -362 -21 -101 -24 -135 -19 -215 10 -144 61
-342 105 -410 52 -79 71 -104 126 -166 34 -38 77 -86 95 -108 53 -61 191 -158
315 -220 28 -14 59 -35 68 -45 17 -19 17 -20 -26 -32 -64 -19 -881 -18 -923 0
-16 7 -62 17 -101 21 -141 14 -349 113 -459 217 -117 111 -199 237 -243 373
-60 184 -82 460 -46 566 8 25 19 76 24 112 9 73 39 172 69 222 4 8 20 42 35
74 34 74 119 178 191 235 58 45 209 124 260 137 17 4 35 11 41 15 17 13 226
51 329 60 126 10 722 2 765 -10z m24 -3851 c81 -10 94 -19 78 -55 -9 -19 -42
-40 -125 -79 -62 -30 -121 -64 -132 -75 -10 -12 -35 -31 -54 -43 -41 -25 -42
-25 -136 -116 -79 -76 -161 -172 -170 -202 -4 -11 -10 -20 -15 -20 -5 0 -14
-17 -21 -37 -6 -21 -15 -42 -19 -48 -15 -18 -50 -243 -50 -312 1 -80 30 -247
57 -318 18 -50 72 -133 135 -209 94 -114 165 -169 322 -250 38 -20 74 -40 80
-45 6 -5 29 -14 52 -20 50 -13 94 -55 76 -73 -15 -15 -423 -27 -758 -23 -170
2 -228 6 -250 18 -16 8 -56 18 -89 22 -33 4 -79 15 -102 26 -23 10 -47 19 -54
19 -6 0 -28 10 -48 22 -237 141 -365 303 -468 595 -26 71 -28 90 -28 218 0
100 5 161 18 215 24 100 66 227 88 270 11 19 19 38 19 42 0 7 38 67 68 106 48
64 167 176 244 230 48 34 91 62 96 62 5 0 15 6 21 14 20 24 100 47 206 61 118
15 852 19 959 5z"/>
</g>
</svg>
